<svg width="332" height="52" viewBox="0 0 332 52" fill="none" xmlns="http://www.w3.org/2000/svg">
<g filter="url(#filter0_d_15337_2)">
<rect x="6" y="4" width="320" height="40" rx="5" fill="white"/>
</g>
<path d="M16.66 33C16.4733 33 16.3053 32.9347 16.156 32.804C16.0253 32.6547 15.96 32.4867 15.96 32.3V14.1C15.96 13.8947 16.0253 13.7267 16.156 13.596C16.3053 13.4653 16.4733 13.4 16.66 13.4H19.628C20.0947 13.4 20.412 13.5773 20.58 13.932L27.412 24.684V14.1C27.412 13.8947 27.4773 13.7267 27.608 13.596C27.7573 13.4653 27.9253 13.4 28.112 13.4H31.472C31.6773 13.4 31.8453 13.4653 31.976 13.596C32.1067 13.7267 32.172 13.8947 32.172 14.1V32.272C32.172 32.4773 32.1067 32.6547 31.976 32.804C31.8453 32.9347 31.6773 33 31.472 33H28.476C28.0653 33 27.7573 32.8227 27.552 32.468L20.72 22.108V32.3C20.72 32.4867 20.6547 32.6547 20.524 32.804C20.3933 32.9347 20.2253 33 20.02 33H16.66ZM34.965 33C34.8157 33 34.6757 32.944 34.545 32.832C34.433 32.7013 34.377 32.5613 34.377 32.412C34.377 32.3 34.3863 32.216 34.405 32.16L40.985 14.184C41.041 13.96 41.1623 13.7733 41.349 13.624C41.5357 13.4747 41.7783 13.4 42.077 13.4H46.221C46.5197 13.4 46.7623 13.4747 46.949 13.624C47.1357 13.7733 47.257 13.96 47.313 14.184L53.865 32.16L53.921 32.412C53.921 32.5613 53.8557 32.7013 53.725 32.832C53.613 32.944 53.473 33 53.305 33H49.861C49.413 33 49.1143 32.804 48.965 32.412L47.873 29.556H40.397L39.333 32.412C39.1837 32.804 38.8757 33 38.409 33H34.965ZM46.753 25.524L44.149 18.132L41.545 25.524H46.753ZM56.828 33C56.6413 33 56.4733 32.9347 56.324 32.804C56.1933 32.6547 56.128 32.4867 56.128 32.3V14.1C56.128 13.8947 56.1933 13.7267 56.324 13.596C56.4733 13.4653 56.6413 13.4 56.828 13.4H59.852C60.3 13.4 60.6266 13.6053 60.832 14.016L65.76 22.836L70.688 14.016C70.8933 13.6053 71.22 13.4 71.668 13.4H74.664C74.8693 13.4 75.0373 13.4653 75.168 13.596C75.3173 13.7267 75.392 13.8947 75.392 14.1V32.3C75.392 32.5053 75.3173 32.6733 75.168 32.804C75.0373 32.9347 74.8693 33 74.664 33H71.332C71.1266 33 70.9493 32.9347 70.8 32.804C70.6693 32.6733 70.604 32.5053 70.604 32.3V21.8L67.468 27.652C67.2253 28.0813 66.8986 28.296 66.488 28.296H65.032C64.7893 28.296 64.5933 28.24 64.444 28.128C64.2946 28.016 64.164 27.8573 64.052 27.652L60.888 21.8V32.3C60.888 32.4867 60.8226 32.6547 60.692 32.804C60.5613 32.9347 60.3933 33 60.188 33H56.828ZM78.1955 33C78.0461 33 77.9061 32.944 77.7755 32.832C77.6635 32.7013 77.6075 32.5613 77.6075 32.412C77.6075 32.3 77.6168 32.216 77.6355 32.16L84.2155 14.184C84.2715 13.96 84.3928 13.7733 84.5795 13.624C84.7661 13.4747 85.0088 13.4 85.3075 13.4H89.4515C89.7501 13.4 89.9928 13.4747 90.1795 13.624C90.3661 13.7733 90.4875 13.96 90.5435 14.184L97.0955 32.16L97.1515 32.412C97.1515 32.5613 97.0861 32.7013 96.9555 32.832C96.8435 32.944 96.7035 33 96.5355 33H93.0915C92.6435 33 92.3448 32.804 92.1955 32.412L91.1035 29.556H83.6275L82.5635 32.412C82.4141 32.804 82.1061 33 81.6395 33H78.1955ZM89.9835 25.524L87.3795 18.132L84.7755 25.524H89.9835ZM100.058 33C99.8718 33 99.7038 32.9347 99.5544 32.804C99.4238 32.6547 99.3584 32.4867 99.3584 32.3V14.1C99.3584 13.8947 99.4238 13.7267 99.5544 13.596C99.7038 13.4653 99.8718 13.4 100.058 13.4H103.026C103.493 13.4 103.81 13.5773 103.978 13.932L110.81 24.684V14.1C110.81 13.8947 110.876 13.7267 111.006 13.596C111.156 13.4653 111.324 13.4 111.51 13.4H114.87C115.076 13.4 115.244 13.4653 115.374 13.596C115.505 13.7267 115.57 13.8947 115.57 14.1V32.272C115.57 32.4773 115.505 32.6547 115.374 32.804C115.244 32.9347 115.076 33 114.87 33H111.874C111.464 33 111.156 32.8227 110.95 32.468L104.118 22.108V32.3C104.118 32.4867 104.053 32.6547 103.922 32.804C103.792 32.9347 103.624 33 103.418 33H100.058ZM127.575 33.28C124.887 33.28 122.787 32.6267 121.275 31.32C119.763 29.9947 118.961 28.1187 118.867 25.692C118.849 25.1507 118.839 24.292 118.839 23.116C118.839 21.94 118.849 21.0813 118.867 20.54C118.961 18.1693 119.773 16.34 121.303 15.052C122.853 13.764 124.943 13.12 127.575 13.12C129.349 13.12 130.889 13.4093 132.195 13.988C133.521 14.5667 134.529 15.304 135.219 16.2C135.929 17.096 136.302 18.02 136.339 18.972C136.339 19.14 136.274 19.28 136.143 19.392C136.031 19.504 135.891 19.56 135.723 19.56H131.635C131.449 19.56 131.299 19.532 131.187 19.476C131.075 19.42 130.982 19.3173 130.907 19.168C130.665 18.6267 130.282 18.16 129.759 17.768C129.237 17.3573 128.509 17.152 127.575 17.152C125.354 17.152 124.187 18.328 124.075 20.68C124.057 21.2027 124.047 22.0147 124.047 23.116C124.047 24.1987 124.057 25.0107 124.075 25.552C124.187 28.016 125.382 29.248 127.659 29.248C128.761 29.248 129.638 28.968 130.291 28.408C130.963 27.8293 131.299 26.952 131.299 25.776V25.244H128.667C128.462 25.244 128.294 25.1787 128.163 25.048C128.033 24.8987 127.967 24.7213 127.967 24.516V22.444C127.967 22.2387 128.033 22.0707 128.163 21.94C128.294 21.7907 128.462 21.716 128.667 21.716H135.723C135.929 21.716 136.097 21.7907 136.227 21.94C136.358 22.0707 136.423 22.2387 136.423 22.444V25.636C136.423 27.2227 136.059 28.5947 135.331 29.752C134.603 30.8907 133.567 31.768 132.223 32.384C130.898 32.9813 129.349 33.28 127.575 33.28ZM138.078 33C137.929 33 137.789 32.944 137.658 32.832C137.546 32.7013 137.49 32.5613 137.49 32.412C137.49 32.3 137.5 32.216 137.518 32.16L144.098 14.184C144.154 13.96 144.276 13.7733 144.462 13.624C144.649 13.4747 144.892 13.4 145.19 13.4H149.334C149.633 13.4 149.876 13.4747 150.062 13.624C150.249 13.7733 150.37 13.96 150.426 14.184L156.978 32.16L157.034 32.412C157.034 32.5613 156.969 32.7013 156.838 32.832C156.726 32.944 156.586 33 156.418 33H152.974C152.526 33 152.228 32.804 152.078 32.412L150.986 29.556H143.51L142.446 32.412C142.297 32.804 141.989 33 141.522 33H138.078ZM149.866 25.524L147.262 18.132L144.658 25.524H149.866ZM159.941 33C159.755 33 159.587 32.9347 159.437 32.804C159.307 32.6547 159.241 32.4867 159.241 32.3V14.1C159.241 13.8947 159.307 13.7267 159.437 13.596C159.587 13.4653 159.755 13.4 159.941 13.4H162.909C163.376 13.4 163.693 13.5773 163.861 13.932L170.693 24.684V14.1C170.693 13.8947 170.759 13.7267 170.889 13.596C171.039 13.4653 171.207 13.4 171.393 13.4H174.753C174.959 13.4 175.127 13.4653 175.257 13.596C175.388 13.7267 175.453 13.8947 175.453 14.1V32.272C175.453 32.4773 175.388 32.6547 175.257 32.804C175.127 32.9347 174.959 33 174.753 33H171.757C171.347 33 171.039 32.8227 170.833 32.468L164.001 22.108V32.3C164.001 32.4867 163.936 32.6547 163.805 32.804C163.675 32.9347 163.507 33 163.301 33H159.941ZM180.066 33C179.88 33 179.712 32.9347 179.562 32.804C179.432 32.6547 179.366 32.4867 179.366 32.3V14.1C179.366 13.8947 179.432 13.7267 179.562 13.596C179.712 13.4653 179.88 13.4 180.066 13.4H183.762C183.968 13.4 184.136 13.4653 184.266 13.596C184.397 13.7267 184.462 13.8947 184.462 14.1V28.772H192.946C193.152 28.772 193.32 28.8467 193.45 28.996C193.581 29.1267 193.646 29.2947 193.646 29.5V32.3C193.646 32.4867 193.581 32.6547 193.45 32.804C193.32 32.9347 193.152 33 192.946 33H180.066ZM196.773 33C196.587 33 196.419 32.9347 196.269 32.804C196.139 32.6547 196.073 32.4867 196.073 32.3V14.1C196.073 13.8947 196.139 13.7267 196.269 13.596C196.419 13.4653 196.587 13.4 196.773 13.4H200.525C200.731 13.4 200.899 13.4653 201.029 13.596C201.179 13.7267 201.253 13.8947 201.253 14.1V32.3C201.253 32.5053 201.179 32.6733 201.029 32.804C200.899 32.9347 200.731 33 200.525 33H196.773ZM205.851 33C205.665 33 205.497 32.9347 205.347 32.804C205.217 32.6547 205.151 32.4867 205.151 32.3V14.1C205.151 13.8947 205.217 13.7267 205.347 13.596C205.497 13.4653 205.665 13.4 205.851 13.4H209.379C209.585 13.4 209.753 13.4653 209.883 13.596C210.014 13.7267 210.079 13.8947 210.079 14.1V20.316L215.259 13.932C215.483 13.5773 215.847 13.4 216.351 13.4H220.383C220.551 13.4 220.691 13.4653 220.803 13.596C220.915 13.708 220.971 13.8387 220.971 13.988C220.971 14.1187 220.943 14.2307 220.887 14.324L214.167 22.78L221.391 32.076C221.466 32.1507 221.503 32.2627 221.503 32.412C221.503 32.5613 221.447 32.7013 221.335 32.832C221.223 32.944 221.083 33 220.915 33H216.743C216.295 33 215.922 32.8133 215.623 32.44L210.079 25.524V32.3C210.079 32.5053 210.014 32.6733 209.883 32.804C209.753 32.9347 209.585 33 209.379 33H205.851ZM224.418 33C224.231 33 224.063 32.9347 223.914 32.804C223.783 32.6547 223.718 32.4867 223.718 32.3V14.1C223.718 13.8947 223.783 13.7267 223.914 13.596C224.063 13.4653 224.231 13.4 224.418 13.4H228.114C228.319 13.4 228.487 13.4653 228.618 13.596C228.748 13.7267 228.814 13.8947 228.814 14.1V28.772H237.298C237.503 28.772 237.671 28.8467 237.802 28.996C237.932 29.1267 237.998 29.2947 237.998 29.5V32.3C237.998 32.4867 237.932 32.6547 237.802 32.804C237.671 32.9347 237.503 33 237.298 33H224.418ZM239.305 33C239.156 33 239.016 32.944 238.885 32.832C238.773 32.7013 238.717 32.5613 238.717 32.412C238.717 32.3 238.726 32.216 238.745 32.16L245.325 14.184C245.381 13.96 245.502 13.7733 245.689 13.624C245.876 13.4747 246.118 13.4 246.417 13.4H250.561C250.86 13.4 251.102 13.4747 251.289 13.624C251.476 13.7733 251.597 13.96 251.653 14.184L258.205 32.16L258.261 32.412C258.261 32.5613 258.196 32.7013 258.065 32.832C257.953 32.944 257.813 33 257.645 33H254.201C253.753 33 253.454 32.804 253.305 32.412L252.213 29.556H244.737L243.673 32.412C243.524 32.804 243.216 33 242.749 33H239.305ZM251.093 25.524L248.489 18.132L245.885 25.524H251.093ZM261.168 33C260.981 33 260.813 32.9347 260.664 32.804C260.533 32.6547 260.468 32.4867 260.468 32.3V14.1C260.468 13.8947 260.533 13.7267 260.664 13.596C260.813 13.4653 260.981 13.4 261.168 13.4H268.784C271.229 13.4 273.133 13.96 274.496 15.08C275.877 16.1813 276.568 17.7493 276.568 19.784C276.568 21.0907 276.26 22.2013 275.644 23.116C275.028 24.0307 274.178 24.7307 273.096 25.216L276.932 32.104C276.988 32.216 277.016 32.3187 277.016 32.412C277.016 32.5613 276.95 32.7013 276.82 32.832C276.708 32.944 276.577 33 276.428 33H272.704C272.162 33 271.78 32.748 271.556 32.244L268.364 26.084H265.508V32.3C265.508 32.5053 265.433 32.6733 265.284 32.804C265.153 32.9347 264.985 33 264.78 33H261.168ZM268.728 22.108C269.586 22.108 270.24 21.9027 270.688 21.492C271.136 21.0627 271.36 20.4747 271.36 19.728C271.36 18.9813 271.136 18.3933 270.688 17.964C270.258 17.516 269.605 17.292 268.728 17.292H265.508V22.108H268.728ZM279.743 33C279.538 33 279.361 32.9347 279.211 32.804C279.081 32.6733 279.015 32.5053 279.015 32.3V30.312C279.015 29.752 279.249 29.2947 279.715 28.94L282.627 26.084C284.326 24.7773 285.614 23.76 286.491 23.032C287.369 22.304 288.031 21.6413 288.479 21.044C288.927 20.4467 289.151 19.8773 289.151 19.336C289.151 17.8613 288.423 17.124 286.967 17.124C286.202 17.124 285.614 17.3573 285.203 17.824C284.793 18.272 284.522 18.8413 284.391 19.532C284.279 19.9613 283.962 20.176 283.439 20.176H279.939C279.771 20.176 279.631 20.12 279.519 20.008C279.407 19.896 279.351 19.756 279.351 19.588C279.389 18.3933 279.715 17.3013 280.331 16.312C280.966 15.304 281.853 14.5107 282.991 13.932C284.149 13.3347 285.474 13.036 286.967 13.036C288.535 13.036 289.879 13.288 290.999 13.792C292.119 14.296 292.969 15.0053 293.547 15.92C294.126 16.8347 294.415 17.8987 294.415 19.112C294.415 20.4187 294.005 21.6133 293.183 22.696C292.381 23.76 291.149 24.9173 289.487 26.168L286.911 28.772H294.107C294.313 28.772 294.481 28.8373 294.611 28.968C294.761 29.0987 294.835 29.2667 294.835 29.472V32.3C294.835 32.5053 294.761 32.6733 294.611 32.804C294.481 32.9347 294.313 33 294.107 33H279.743ZM306.833 33C306.647 33 306.479 32.9347 306.329 32.804C306.199 32.6547 306.133 32.4867 306.133 32.3V29.136H297.425C297.22 29.136 297.052 29.0707 296.921 28.94C296.791 28.8093 296.725 28.6413 296.725 28.436V25.776C296.725 25.496 296.828 25.2067 297.033 24.908L305.181 13.876C305.443 13.5587 305.788 13.4 306.217 13.4H310.305C310.511 13.4 310.679 13.4653 310.809 13.596C310.94 13.7267 311.005 13.8947 311.005 14.1V24.964H313.469C313.693 24.964 313.871 25.0387 314.001 25.188C314.132 25.3187 314.197 25.4773 314.197 25.664V28.436C314.197 28.6413 314.132 28.8093 314.001 28.94C313.871 29.0707 313.703 29.136 313.497 29.136H311.005V32.3C311.005 32.4867 310.94 32.6547 310.809 32.804C310.679 32.9347 310.511 33 310.305 33H306.833ZM306.245 25.16V18.552L301.541 25.16H306.245Z" fill="#295091"/>
<defs>
<filter id="filter0_d_15337_2" x="0" y="0" width="332" height="52" filterUnits="userSpaceOnUse" color-interpolation-filters="sRGB">
<feFlood flood-opacity="0" result="BackgroundImageFix"/>
<feColorMatrix in="SourceAlpha" type="matrix" values="0 0 0 0 0 0 0 0 0 0 0 0 0 0 0 0 0 0 127 0" result="hardAlpha"/>
<feOffset dy="2"/>
<feGaussianBlur stdDeviation="3"/>
<feColorMatrix type="matrix" values="0 0 0 0 0.791667 0 0 0 0 0.791667 0 0 0 0 0.791667 0 0 0 0.25 0"/>
<feBlend mode="normal" in2="BackgroundImageFix" result="effect1_dropShadow_15337_2"/>
<feBlend mode="normal" in="SourceGraphic" in2="effect1_dropShadow_15337_2" result="shape"/>
</filter>
</defs>
</svg>
